<svg width="24" height="24" viewBox="0 0 24 24" fill="none" xmlns="http://www.w3.org/2000/svg">
    <path d="M2 12C2 17.5228 6.47715 22 12 22C13.6569 22 15 20.6569 15 19C15 18.2297 14.7136 17.5335 14.2361 17.0007C13.7996 16.5088 13.2327 16.1445 12.6016 15.9453C11.9705 15.7461 11.2951 15.7173 10.6507 15.8618C10.0064 16.0062 9.41501 16.3188 8.93466 16.7666C8.45431 17.2144 8.09835 17.7814 7.90874 18.4105C7.71914 19.0396 7.7027 19.7087 7.86301 20.3461" stroke="currentColor" stroke-width="2" stroke-linecap="round"/>
    <path d="M8 7H16M8 11H16M8 15H12" stroke="currentColor" stroke-width="2" stroke-linecap="round"/>
</svg> 