<svg width="24" height="24" viewBox="0 0 24 24" fill="none" xmlns="http://www.w3.org/2000/svg">
    <path d="M12 3C7.02944 3 3 7.02944 3 12C3 16.9706 7.02944 21 12 21C16.9706 21 21 16.9706 21 12C21 7.02944 16.9706 3 12 3Z" stroke="currentColor" stroke-width="2"/>
    <path d="M12 8C10.3431 8 9 9.34315 9 11C9 11.7403 9.4022 12.3866 10 12.7324M12 8C13.6569 8 15 9.34315 15 11C15 11.7403 14.5978 12.3866 14 12.7324M12 8V7M10 12.7324V15L12 14L14 15V12.7324M10 12.7324C9.4022 13.0782 9 13.7245 9 14.4648C9 15.8659 10.3431 17 12 17C13.6569 17 15 15.8659 15 14.4648C15 13.7245 14.5978 13.0782 14 12.7324" stroke="currentColor" stroke-width="2" stroke-linecap="round"/>
</svg> 